<svg xmlns="http://www.w3.org/2000/svg" width="63" height="68.299" viewBox="0 0 63 68.299">
  <path id="Вычитание_2" data-name="Вычитание 2" d="M31.5,68.3a14.447,14.447,0,0,1-5.734-1.089A103.019,103.019,0,0,1,15.75,61.984c-5.165-3.084-9.393-6.21-9.436-6.242a15.318,15.318,0,0,1-3.765-4.564,15.06,15.06,0,0,1-1.969-5.6C.575,45.527,0,40.206,0,34.113,0,27.947.575,22.7.581,22.645A16.591,16.591,0,0,1,6.314,12.484c.042-.031,4.273-3.086,9.436-6.169,5.233-3.083,9.969-5.2,10.016-5.225A13.959,13.959,0,0,1,31.5,0a14.434,14.434,0,0,1,5.734,1.089A102.816,102.816,0,0,1,47.25,6.314c5.167,3.013,9.394,6.138,9.436,6.169a15.311,15.311,0,0,1,3.765,4.563,15.058,15.058,0,0,1,1.969,5.6c.006.053.581,5.375.581,11.468,0,6.167-.575,11.416-.581,11.468a16.593,16.593,0,0,1-5.734,10.162c-.042.031-4.269,3.157-9.436,6.242-5.239,3.086-9.969,5.205-10.016,5.226A13.966,13.966,0,0,1,31.5,68.3ZM26.855,3.775a96.356,96.356,0,0,0-9.726,5.08c-3.849,2.287-7.1,4.589-8.491,5.573-.4.282-.637.451-.654.451a13.894,13.894,0,0,0-4.573,8.13c-.005.052-.508,5.218-.508,11.1a91.126,91.126,0,0,0,.581,11.105,13.661,13.661,0,0,0,4.573,8.13c.041.03,4.194,3.082,9.145,6.024a107.123,107.123,0,0,0,9.726,5.08,11.983,11.983,0,0,0,4.572.8,11.987,11.987,0,0,0,4.573-.8,96.258,96.258,0,0,0,9.725-5.08c3.85-2.287,7.1-4.59,8.492-5.573.4-.281.637-.451.654-.451a13.888,13.888,0,0,0,4.572-8.13,101.7,101.7,0,0,0,.508-11.177c0-3.456-.176-7.34-.494-10.938-.009-.1-.014-.16-.014-.167a13.415,13.415,0,0,0-4.572-8.129c-.041-.03-4.2-3.083-9.146-6.025A107.445,107.445,0,0,0,36.073,3.7,11.986,11.986,0,0,0,31.5,2.9a11.256,11.256,0,0,0-4.645.871h0ZM31.536,50.4a3.723,3.723,0,0,1-2.324-.815,9.193,9.193,0,0,0-5.86-1.658H11.66a1.237,1.237,0,1,1,0-2.474h1.319V41.745a1.238,1.238,0,0,1,1.237-1.237H26.586a6.14,6.14,0,0,1,4.948,2.479,6.141,6.141,0,0,1,4.948-2.479H48.853a1.238,1.238,0,0,1,1.237,1.237v3.712h1.319a1.237,1.237,0,1,1,0,2.474H39.716a9.193,9.193,0,0,0-5.86,1.658A3.716,3.716,0,0,1,31.536,50.4Zm4.946-7.421a3.715,3.715,0,0,0-3.711,3.711v.622a11.97,11.97,0,0,1,6.944-1.858h7.9V42.982Zm-21.029,0v2.474h7.9A11.974,11.974,0,0,1,30.3,47.315v-.622a3.715,3.715,0,0,0-3.712-3.711Z" fill="#fff"/>
</svg>
